<svg width="100" height="100" xmlns="http://www.w3.org/2000/svg">

 <g>
  <title>background</title>
  <rect fill="none" id="canvas_background" height="21" width="21" y="-1" x="-1"/>
 </g>
 <g>
  <title>Layer 1</title>
  <path fill="#4a5568" id="svg_1" fill-rule="evenodd" d="m50,76.668c-14.727,0 -26.668,-11.941 -26.668,-26.668s11.941,-26.668 26.668,-26.668s26.668,11.941 26.668,26.668s-11.941,26.668 -26.668,26.668zm-3.0586,-20.117l5.5859,0c0.02734,-0.98828 0.16406,-1.8047 0.41016,-2.4492c0.24609,-0.64453 0.69141,-1.2734 1.3281,-1.8867l2.2461,-2.0898c0.94922,-0.92188 1.6406,-1.8281 2.0703,-2.7148c0.42969,-0.88281 0.64453,-1.8672 0.64453,-2.9492c0,-2.4727 -0.79687,-4.3789 -2.3945,-5.7227c-1.5938,-1.3398 -3.8438,-2.0117 -6.7461,-2.0117c-2.918,0 -5.1836,0.72656 -6.7969,2.1797c-1.6133,1.4492 -2.4336,3.4805 -2.4609,6.082l6.6016,0c0.02734,-0.97656 0.28125,-1.75 0.76172,-2.3242c0.48047,-0.57031 1.1133,-0.85937 1.8945,-0.85937c1.6914,0 2.5391,0.98437 2.5391,2.9492c0,0.80859 -0.25,1.5469 -0.75391,2.2188c-0.5,0.66797 -1.2305,1.4102 -2.1953,2.2148c-0.96484,0.80859 -1.6602,1.7617 -2.0898,2.8633c-0.42969,1.0977 -0.64453,2.6016 -0.64453,4.5l-0.00007,-0.00013zm-0.80078,5.9375c0,0.96484 0.34766,1.7539 1.043,2.375c0.69922,0.61719 1.5664,0.92578 2.6094,0.92578s1.9102,-0.30859 2.6055,-0.92578c0.69922,-0.62109 1.0469,-1.4102 1.0469,-2.375c0,-0.96094 -0.34766,-1.7539 -1.0469,-2.3711c-0.69531,-0.62109 -1.5625,-0.92969 -2.6055,-0.92969s-1.9102,0.30859 -2.6094,0.92969c-0.69531,0.61719 -1.043,1.4102 -1.043,2.3711z"/>
 </g>
</svg>